PathFileType	4	(X/Y/Z)	 s08c0202.trc
DataRate	CameraRate	NumFrames	NumMarkers	Units	OrigDataRate	OrigDataStartFrame	OrigNumFrames
200	200	4	50	mm	200	1501	2000
Frame#	Time	racr			lacr			c7			jug			rlel			rdr			llel			ldr			s2			lic			ric			lasi			rasi			rpsi			lpsi			rgt			lgt			rth1			rth2			rth3			rth4			rlfc			rmfc			rsh1			rsh2			rsh3			rsh4			rlmal			rmmal			rcal			rtoe			rmt5			lth1			lth2			lth4			lth3			llfc			lmfc			llmal			lmmal			lcal			lmt5			lsh1			lsh2			lsh3			lsh4			ltoe			SBIKE			LBIKE			RBIKE			
		X1	Y1	Z1	X2	Y2	Z2	X3	Y3	Z3	X4	Y4	Z4	X5	Y5	Z5	X6	Y6	Z6	X7	Y7	Z7	X8	Y8	Z8	X9	Y9	Z9	X10	Y10	Z10	X11	Y11	Z11	X12	Y12	Z12	X13	Y13	Z13	X14	Y14	Z14	X15	Y15	Z15	X16	Y16	Z16	X17	Y17	Z17	X18	Y18	Z18	X19	Y19	Z19	X20	Y20	Z20	X21	Y21	Z21	X22	Y22	Z22	X23	Y23	Z23	X24	Y24	Z24	X25	Y25	Z25	X26	Y26	Z26	X27	Y27	Z27	X28	Y28	Z28	X29	Y29	Z29	X30	Y30	Z30	X31	Y31	Z31	X32	Y32	Z32	X33	Y33	Z33	X34	Y34	Z34	X35	Y35	Z35	X36	Y36	Z36	X37	Y37	Z37	X38	Y38	Z38	X39	Y39	Z39	X40	Y40	Z40	X41	Y41	Z41	X42	Y42	Z42	X43	Y43	Z43	X44	Y44	Z44	X45	Y45	Z45	X46	Y46	Z46	X47	Y47	Z47	X48	Y48	Z48	X49	Y49	Z49	X50	Y50	Z50	
1501	7.5050	548.789069	1353.298724	-76.242396	517.796023	1312.761166	-435.759056	522.133823	1427.113779	-262.011144	476.941248	1271.597418	-244.523447	563.062150	1119.585819	57.580956	760.727005	922.587974	-45.141061	534.331825	1047.640074	-526.442529	771.484897	937.652035	-412.565506	-13.687484	1209.629639	-178.108163	121.992020	1220.990409	-335.272244	161.919454	1197.991213	-25.691622	161.652504	1185.500948	-301.259197	176.567622	1133.738395	-56.260659	21.343968	1244.071624	-115.900854	9.156963	1258.036788	-211.435490	63.142327	1075.410080	-8.462453	111.858093	1152.189521	-375.516700	126.012960	913.988662	0.148723	174.389468	838.961078	-1.671747	179.784959	753.306578	-20.937665	209.791761	851.286887	-7.562431	222.925397	645.592336	-42.851008	203.056192	632.963496	-151.825147	183.249143	519.036764	-13.246820	206.889993	434.623195	-31.580164	184.039287	351.333740	-41.328475	236.339831	439.022527	-59.141596	179.137113	228.953984	-51.039340	197.281514	252.884865	-138.007755	106.018194	204.521721	-100.671301	403.673827	168.144247	-95.982451	310.155031	143.714481	-31.829595	216.787814	1089.090928	-371.868612	303.330698	1076.823147	-365.416168	315.416467	1105.246327	-343.941857	373.601161	1023.098895	-372.871363	472.114880	935.548377	-349.845212	470.970005	898.227842	-242.122066	204.248910	621.926491	-385.452793	234.736438	620.082285	-302.714079	127.875712	623.582553	-350.404132	292.308565	486.537885	-411.587459	405.069300	841.833387	-378.352813	363.057778	766.366140	-372.173798	289.963523	717.963886	-379.921091	382.934403	748.575154	-343.983574	377.669500	477.862508	-340.646622	-141.287063	939.431999	-216.382844	18.176793	84.951663	-425.384577	11.307650	80.183875	-27.028878	
1502	7.5100	549.777961	1353.272402	-78.376246	517.389586	1313.256457	-437.697176	522.265572	1426.778528	-263.830301	476.944606	1271.363039	-246.242194	564.075565	1119.784477	55.909409	761.678190	922.881750	-45.697808	534.285744	1047.696242	-527.076233	771.452777	937.821875	-413.098738	-13.342728	1211.273459	-178.268659	121.853664	1222.389693	-335.261867	162.033140	1198.720545	-26.159161	161.575063	1186.258892	-302.176951	176.231569	1134.648983	-56.466780	19.638114	1246.363672	-110.542560	9.258539	1259.773069	-211.451444	62.576386	1076.563653	-8.813260	111.690051	1154.081891	-375.525943	124.226063	914.969671	0.125456	172.351181	839.676615	-1.511775	177.683591	754.394098	-21.849587	207.873864	851.953541	-6.739088	220.763437	646.665063	-43.521891	200.960701	635.075283	-153.580515	179.554821	520.572221	-14.117538	201.238878	435.701044	-32.667189	177.282899	352.819979	-42.039236	231.624388	439.373575	-59.637303	170.092022	230.434101	-51.580692	189.318503	253.619751	-138.411781	96.790996	207.182076	-101.325340	393.710926	165.445389	-95.871309	299.686774	142.823928	-31.886472	216.269482	1090.498808	-372.080143	302.726357	1078.620949	-365.925187	314.907661	1107.318595	-344.861626	373.321392	1025.220789	-373.508888	472.546483	938.308194	-351.153705	472.111925	901.414259	-243.246138	208.712318	620.357177	-385.758940	239.037319	619.782137	-303.043760	132.048474	618.662373	-351.190149	301.920936	488.051752	-411.012317	407.099271	843.083541	-379.904203	366.982542	768.718962	-375.983619	293.371553	717.942048	-380.881579	385.410773	750.156726	-343.585028	387.548896	483.741687	-340.669035	-141.321629	939.570158	-216.305156	18.135050	85.110888	-425.359172	11.298330	80.211917	-27.001444	
1503	7.5150	550.746151	1353.035195	-80.152775	517.066395	1313.659163	-439.290636	522.452345	1426.308919	-265.445804	476.937670	1271.008723	-247.778423	564.870369	1119.992895	54.412930	762.802633	923.298905	-45.972133	534.276801	1047.818134	-527.703664	771.285735	937.842114	-413.118948	-12.969273	1212.715988	-178.800196	121.883510	1224.213494	-336.105633	161.932135	1199.695848	-26.535878	161.509983	1186.906537	-303.166300	175.710832	1135.744277	-56.743943	21.573971	1250.300004	-100.690254	9.372787	1261.482516	-211.796523	61.935604	1078.074855	-9.189549	111.419301	1154.986675	-375.776274	122.942780	915.970107	-0.279600	171.087508	840.738372	-1.713834	176.858281	755.665801	-22.788293	206.596599	852.990327	-6.071962	220.192777	648.250322	-44.231333	200.499779	637.203040	-155.729190	176.868286	522.591151	-15.030966	196.774190	437.227121	-33.590891	171.097504	354.894555	-42.785988	227.345899	440.232245	-60.368974	161.223875	232.612938	-52.149707	180.921115	255.541525	-138.820950	87.738427	210.479503	-101.932450	383.722670	163.486482	-95.268192	289.131520	142.567055	-31.956498	215.607417	1091.482491	-372.638852	302.045879	1079.626862	-366.350074	314.758683	1109.374602	-348.301425	372.899648	1026.408695	-373.994449	472.646093	939.991428	-352.581108	472.621966	903.536645	-244.395902	212.904036	617.517021	-386.055757	243.131162	618.386601	-302.902908	136.020635	612.658663	-351.834132	311.564828	489.444487	-411.145154	407.988567	843.108247	-381.766641	367.707221	766.813521	-374.118164	295.732026	716.775555	-381.812729	387.628439	750.285348	-345.478693	397.237014	489.213392	-340.673290	-141.344665	939.621554	-216.349218	18.100835	85.143536	-425.370191	11.286225	80.222494	-26.995233	
1504	7.5200	551.529597	1352.723994	-81.813020	516.858197	1314.077206	-440.640452	522.706453	1425.872620	-266.822504	476.815601	1270.724148	-249.209741	565.413131	1120.162491	53.150459	763.844899	923.881103	-46.080699	534.163868	1048.058781	-528.565685	771.010416	937.817514	-413.056819	-13.891306	1214.053662	-179.297770	121.970935	1226.038133	-337.298836	161.201594	1200.931409	-27.134694	161.456783	1187.446819	-304.224124	174.994278	1137.102283	-56.988321	21.466413	1251.923404	-100.849243	9.416929	1263.154530	-212.501391	61.054132	1079.543489	-9.508409	110.908903	1155.390865	-376.358911	122.189878	917.153851	-0.929637	170.565993	841.988824	-2.192911	177.082066	757.236582	-24.291820	206.094963	854.383370	-5.623309	221.047451	650.212053	-44.986092	201.625606	640.502792	-157.048041	175.334981	525.132297	-15.939940	193.121800	439.392287	-34.501784	165.533248	357.612934	-43.576739	223.936589	441.569823	-61.054347	152.691221	235.417317	-52.642505	173.292769	257.753696	-139.300211	78.898782	214.752683	-102.617330	373.854914	161.854744	-95.260520	278.747523	142.987345	-32.005682	214.955886	1091.935079	-373.615598	301.431252	1080.184599	-367.620240	314.110991	1110.383317	-350.583799	372.437156	1026.711334	-374.509180	472.359758	940.525914	-354.044602	472.600031	904.406607	-245.926082	216.983583	613.116471	-386.245508	247.059784	615.616004	-303.063334	139.904147	605.174704	-352.199494	320.958352	490.108476	-411.375178	407.783376	842.262353	-383.372396	370.964180	770.239847	-384.258957	297.659126	714.230382	-382.726188	388.793041	749.238398	-345.713952	406.575294	494.179069	-341.015350	-141.382775	939.593851	-216.486287	18.079465	85.140887	-425.386496	11.258790	80.253518	-26.988872	
